<svg aria-hidden="true" style="position:absolute;width:0;height:0;overflow:hidden" xmlns="http://www.w3.org/2000/svg"><defs><symbol id="card-arrow" viewBox="0 0 42 32"><path d="M39.776 16.08c.351-.351.568-.837.568-1.373s-.217-1.021-.568-1.373L27.411.976a1.942 1.942 0 1 0-2.746 2.744l.001.001 10.986 10.986-10.986 10.986a1.942 1.942 0 1 0 2.744 2.746l.001-.001L39.769 16.08zM0 16.65h38.4v-3.885H0v3.885z"/></symbol><symbol id="open-icon" viewBox="0 0 40 32"><path fill="#fff" style="fill:var(--color1, #fff)" d="M1.391 0h37.565a1.391 1.391 0 0 1 0 2.782H1.391a1.391 1.391 0 0 1 0-2.782zM1.391 9.739h37.565a1.391 1.391 0 0 1 0 2.782H1.391a1.391 1.391 0 0 1 0-2.782zM1.391 19.478h37.565a1.391 1.391 0 0 1 0 2.782H1.391a1.391 1.391 0 0 1 0-2.782zM1.391 29.217h37.565a1.391 1.391 0 0 1 0 2.782H1.391a1.391 1.391 0 0 1 0-2.782z"/></symbol><symbol id="logo" viewBox="0 0 39 32"><path fill="none" stroke="#f0f4f3" style="stroke:var(--color2, #f0f4f3)" stroke-width="1.394" d="M10.35 5.811h6.168V30.48H10.35zM0 15.678h6.168v14.801H0zM31.051 9.51h6.168v20.968h-6.168zM20.7-2.824h6.168V30.48H20.7z"/><path fill="#e06ca5" style="fill:var(--color3, #e06ca5)" d="M20.915-.035h5.577v1.394h-5.577z"/><path fill="#dd6497" style="fill:var(--color4, #dd6497)" d="M20.915 4.148h5.577v1.394h-5.577z"/><path fill="#db6090" style="fill:var(--color5, #db6090)" d="M20.915 8.331h5.577v1.394h-5.577z"/><path fill="#d95c88" style="fill:var(--color6, #d95c88)" d="M20.915 12.514h5.577v1.394h-5.577z"/><path fill="#d75881" style="fill:var(--color7, #d75881)" d="M20.915 16.697h5.577v1.394h-5.577z"/><path fill="#d55479" style="fill:var(--color8, #d55479)" d="M20.915 20.881h5.577v1.394h-5.577z"/><path fill="#d35072" style="fill:var(--color9, #d35072)" d="M20.915 25.064h5.577v1.394h-5.577z"/></symbol><symbol id="arrow-right" viewBox="0 0 32 32"><path d="M25.225 16.405a.569.569 0 0 0 0-.81l-3.637-3.637a.57.57 0 0 0-.977.404.57.57 0 0 0 .168.405l3.233 3.232-3.233 3.232a.572.572 0 1 0 .81.808l3.635-3.635zM8 16.571h16.821v-1.143H8v1.143z"/><path fill="none" stroke="#000" style="stroke:var(--color10, #000)" stroke-width="1.143" d="M16 .571C24.521.571 31.429 7.479 31.429 16S24.521 31.429 16 31.429.571 24.521.571 16 7.479.571 16 .571z"/></symbol><symbol id="arrow-down" viewBox="0 0 32 32"><path fill="#f0f4f3" style="fill:var(--color2, #f0f4f3)" d="M15.595 25.225a.569.569 0 0 0 .81 0l3.635-3.637a.57.57 0 0 0-.404-.977.57.57 0 0 0-.404.167L16 24.011l-3.232-3.233a.57.57 0 0 0-.977.404.57.57 0 0 0 .168.405l3.637 3.635zM15.429 8v16.821h1.143V8h-1.143z"/><path fill="none" stroke="#f0f4f3" style="stroke:var(--color2, #f0f4f3)" stroke-width="1.143" d="M31.429 16c0 8.521-6.908 15.429-15.429 15.429S.571 24.521.571 16 7.479.571 16 .571 31.429 7.479 31.429 16z"/></symbol><symbol id="phone" viewBox="0 0 32 32"><path d="m31.087 22.612-7.002-3a1.497 1.497 0 0 0-1.746.429l-.002.003-3.1 3.788c-4.885-2.34-8.734-6.189-11.014-10.935l-.06-.139 3.788-3.1a1.496 1.496 0 0 0 .427-1.76l.004.01-3-7A1.514 1.514 0 0 0 7.653.043l.01-.002-6.5 1.499A1.503 1.503 0 0 0 .001 3.002c0 16.032 12.993 29.001 29 29.001.709 0 1.304-.492 1.461-1.153l.002-.01 1.5-6.5a1.518 1.518 0 0 0-.866-1.72l-.01-.004z"/></symbol><symbol id="youtube" viewBox="0 0 32 32"><path d="M31.332 5.007c-.369-1.971-1.453-3.524-2.829-4.05C26.006 0 16 0 16 0S5.993 0 3.498.957c-1.377.526-2.461 2.079-2.829 4.05C0 8.578 0 16.032 0 16.032s0 7.453.668 11.026c.369 1.971 1.453 3.459 2.829 3.985C5.994 32 16 32 16 32s10.007 0 12.502-.957c1.377-.526 2.461-2.013 2.829-3.985C32 23.486 32 16.032 32 16.032s0-7.453-.668-11.025zM12.727 22.799V9.266l8.364 6.766-8.364 6.767z"/></symbol><symbol id="instagram" viewBox="0 0 32 32"><path d="M16.004 7.795h-.012a8.19 8.19 0 0 0-8.191 8.191v.015V16v.014a8.19 8.19 0 0 0 8.191 8.191h.012-.001.012a8.19 8.19 0 0 0 8.191-8.191v-.015V16v-.014a8.19 8.19 0 0 0-8.191-8.191h-.012.001zm0 13.539a5.342 5.342 0 0 1-5.332-5.333V16a5.338 5.338 0 0 1 5.332-5.334A5.337 5.337 0 0 1 21.336 16a5.343 5.343 0 0 1-5.332 5.334h-.001zM26.455 7.46a1.915 1.915 0 1 1-3.827-.001 1.915 1.915 0 0 1 3.827.001zm5.432 1.942c-.122-2.563-.707-4.833-2.584-6.705C27.433.827 25.162.241 22.6.111c-2.641-.148-10.559-.148-13.199 0C6.845.234 4.575.819 2.698 2.69.82 4.56.242 6.831.112 9.395c-.148 2.642-.148 10.56 0 13.202.123 2.564.708 4.835 2.586 6.706 1.878 1.87 4.141 2.456 6.703 2.586 2.641.148 10.559.148 13.199 0 2.563-.123 4.833-.708 6.703-2.586 1.87-1.871 2.456-4.142 2.586-6.706.148-2.641.148-10.552 0-13.196zm-3.412 16.032a5.437 5.437 0 0 1-3.005 3.03l-.036.013c-2.106.835-7.103.643-9.43.643s-7.332.186-9.431-.643a5.43 5.43 0 0 1-3.028-3.006l-.013-.036c-.835-2.106-.643-7.104-.643-9.432s-.186-7.334.643-9.434a5.434 5.434 0 0 1 3.005-3.028l.036-.013c2.107-.835 7.104-.643 9.431-.643s7.332-.186 9.43.643a5.43 5.43 0 0 1 3.028 3.006l.013.036c.836 2.106.643 7.104.643 9.432s.192 7.334-.643 9.434z"/></symbol><symbol id="facebook" viewBox="0 0 32 32"><path d="M32 16.097C32 7.206 24.838 0 16 0S0 7.205 0 16.097C0 24.132 5.851 30.791 13.5 32V20.751H9.433v-4.654h4.065v-3.546c0-4.035 2.387-6.263 6.043-6.263 1.751 0 3.583.314 3.583.314v3.96h-2.017c-1.987 0-2.607 1.242-2.607 2.513v3.022h4.438l-.71 4.654h-3.727V32c7.651-1.208 13.5-7.868 13.5-15.903z"/></symbol><symbol id="earth" viewBox="0 0 32 32"><path d="M16 0C7.163 0 0 7.163 0 16s7.163 16 16 16 16-7.163 16-16S24.837 0 16 0zm10.323 13.903v.447a.998.998 0 0 1-.553.894l-.993.496a.996.996 0 0 1-1.006-.064l.004.002-1.174-.783a.993.993 0 0 0-.878-.115l.007-.002-.171.057a1 1 0 0 0-.514 1.506l-.002-.004.854 1.281c.186.278.498.445.832.445h.53a1 1 0 0 1 1 1v.732a1 1 0 0 1-.2.6l-1.209 1.612a.986.986 0 0 0-.182.415l-.277 1.473a1.015 1.015 0 0 1-.307.553 10.365 10.365 0 0 0-1.59 1.844l-.023.037-.841 1.261a1.793 1.793 0 0 1-3.086-.181l-.005-.01a5.02 5.02 0 0 1-.538-2.277V23.193a1 1 0 0 0-1-1h-1.669a3.526 3.526 0 0 1-3.525-3.525v-.907c0-1.109.523-2.154 1.41-2.82l1.779-1.334a3.51 3.51 0 0 1 2.115-.706h.057c.547 0 1.087.127 1.577.372l.949.475a.992.992 0 0 0 .763.054l3.052-1.017a.999.999 0 0 0-.312-1.948h-.654a1 1 0 0 1-.707-.293l-.446-.446a.997.997 0 0 0-.707-.293h-5.81a1 1 0 0 1-1-.999v-.284c0-.459.312-.859.757-.971l.932-.233c.242-.061.452-.209.59-.416l.521-.781a1 1 0 0 1 .832-.445h1.562a1 1 0 0 0 1-1v-1.4c5.111.828 9.216 4.66 10.446 9.627h-1.189a1 1 0 0 0-.999 1z"/></symbol><symbol id="heart" viewBox="0 0 32 32"><path d="M16 0C7.168 0 0 7.168 0 16s7.168 16 16 16 16-7.168 16-16S24.832 0 16 0zm7.394 14.606-7.291 9.852-7.271-9.852c-.561-.768-1.232-3.252.878-4.645 1.813-1.168 3.523-.271 4.419.768 1.026 1.155 3.006 1.09 3.981 0 .897-1.039 2.606-1.936 4.393-.768 2.123 1.394 1.458 3.871.891 4.645z"/></symbol><symbol id="check-list" viewBox="0 0 24 32"><path d="M20.985 4.008h-4.996A4 4 0 0 0 11.992.011a4 4 0 0 0-3.997 3.997H2.998A3 3 0 0 0 0 7.006v21.985a2.998 2.998 0 0 0 2.998 2.998h17.988a3 3 0 0 0 2.998-2.998V7.006a2.998 2.998 0 0 0-2.998-2.998zM11.992 2.51h.003c.826 0 1.495.669 1.495 1.495v.007c0 .826-.669 1.495-1.495 1.495h-.007a1.495 1.495 0 0 1-1.495-1.495v-.007c0-.826.669-1.495 1.495-1.495h.004zm7.569 14.477-8.931 8.857a.747.747 0 0 1-1.061-.006l-5.16-5.204a.748.748 0 0 1 .006-1.062l1.774-1.762a.748.748 0 0 1 1.062.006l2.873 2.898 6.621-6.57a.748.748 0 0 1 1.062.006l1.762 1.774c.293.3.287.769-.006 1.062z"/></symbol><symbol id="card" viewBox="0 0 41 32"><path d="M37.17.231H3.379A3.38 3.38 0 0 0 0 3.61v24.78a3.38 3.38 0 0 0 3.379 3.379H37.17a3.38 3.38 0 0 0 3.379-3.379V3.609A3.38 3.38 0 0 0 37.17.23zM12.39 6.989a4.51 4.51 0 0 1 4.506 4.505A4.51 4.51 0 0 1 12.391 16a4.51 4.51 0 0 1-4.506-4.505 4.51 4.51 0 0 1 4.505-4.506zm7.885 16.671c0 .746-.704 1.352-1.577 1.352H6.083c-.873 0-1.577-.605-1.577-1.352v-1.352c0-2.239 2.118-4.055 4.73-4.055h.352a7.265 7.265 0 0 0 5.604 0h.352c2.612 0 4.731 1.816 4.731 4.055v1.352zm15.769-3.718c0 .31-.253.563-.563.563H25.343a.565.565 0 0 1-.563-.563v-1.127c0-.31.254-.563.563-.563h10.138c.31 0 .563.253.563.563v1.126zm0-4.505c0 .31-.253.563-.563.563H25.343a.565.565 0 0 1-.563-.563V14.31c0-.309.254-.563.563-.563h10.138c.31 0 .563.253.563.563v1.126zm0-4.506c0 .31-.253.563-.563.563H25.343a.565.565 0 0 1-.563-.563V9.804c0-.309.254-.563.563-.563h10.138c.31 0 .563.254.563.563v1.126z"/></symbol><symbol id="music" viewBox="0 0 32 32"><path d="M29.399.092 9.401 5.998A2.006 2.006 0 0 0 8 7.905v16.339a8.438 8.438 0 0 0-1.997-.245H6C2.688 24 0 25.79 0 28s2.688 4 6 4 6-1.791 6-4V13.394l16-4.688v11.539A8.438 8.438 0 0 0 26.003 20H26c-3.312 0-6 1.791-6 4s2.688 4 6 4 6-1.79 6-3.999V1.999A2 2 0 0 0 29.385.096l.014-.004z"/></symbol><symbol id="rewind" viewBox="0 0 32 32"><path d="m.717 18.05 12 13.33c1.288 1.433 3.283.234 3.283-2.05V2.671c0-2.283-1.994-3.483-3.282-2.05L.717 13.951c-.956 1.067-.956 3.033 0 4.099zm16.001 0 12.001 13.33c1.287 1.433 3.282.234 3.282-2.05V2.671c0-2.283-1.994-3.483-3.282-2.05l-12 13.33c-.957 1.067-.957 3.033 0 4.099z"/></symbol><symbol id="person" viewBox="0 0 32 32"><path d="M16 0C7.161 0 0 7.161 0 16s7.161 16 16 16 16-7.161 16-16S24.839 0 16 0zm0 6.194a5.677 5.677 0 1 1 0 11.355 5.677 5.677 0 0 1 0-11.355zm0 22.193c-3.787 0-7.181-1.716-9.452-4.4 1.213-2.284 3.587-3.858 6.355-3.858.155 0 .31.026.459.071.838.271 1.716.445 2.638.445s1.806-.174 2.639-.445a1.58 1.58 0 0 1 .458-.071c2.768 0 5.142 1.574 6.355 3.858-2.271 2.684-5.665 4.4-9.452 4.4z"/></symbol><symbol id="check" viewBox="0 0 32 32"><path d="M3.54 8.591a.643.643 0 0 0 .568-.308l4.341-6.89c.095-.155.142-.29.142-.415 0-.338-.227-.569-.568-.569-.227 0-.368.087-.5.309L3.52 7.184 1.47 4.495c-.142-.183-.284-.26-.483-.26a.557.557 0 0 0-.577.569c0 .144.047.289.17.433l2.394 3.036c.16.222.33.318.567.318Z" fill="#219653"/></defs></svg>